<?xml version="1.0" encoding="utf-8"?>
<!-- Generator: Adobe Illustrator 24.1.0, SVG Export Plug-In . SVG Version: 6.00 Build 0)  -->
<svg version="1.1" id="Layer_1" xmlns="http://www.w3.org/2000/svg" xmlns:xlink="http://www.w3.org/1999/xlink" x="0px" y="0px"
	 viewBox="0 0 50 50" style="enable-background:new 0 0 50 50;" xml:space="preserve">
<style type="text/css">
	.st0{fill:#E01E37;}
</style>
<g>
	<path class="st0" d="M46.12,8.69H3.88c-1.75,0-3.17,1.42-3.17,3.17v29.61c0,1.75,1.42,3.17,3.17,3.17h42.25
		c1.75,0,3.17-1.42,3.17-3.17V11.86C49.29,10.11,47.87,8.69,46.12,8.69z M45.75,39.52L33.51,22.09c-0.31-0.44-0.8-0.72-1.35-0.75
		c-0.54-0.03-1.06,0.19-1.42,0.59L21.69,32.1l-4.83-5.57c-0.35-0.4-0.87-0.63-1.4-0.61c-0.54,0.02-1.03,0.27-1.35,0.7L4.25,39.69
		V12.23h41.51V39.52z"/>
	<path class="st0" d="M10.53,21.3c1.68,0,3.05-1.37,3.05-3.05c0-1.68-1.37-3.05-3.05-3.05c-1.68,0-3.05,1.37-3.05,3.05
		C7.48,19.93,8.85,21.3,10.53,21.3z"/>
</g>
</svg>
