<?xml version="1.0" encoding="utf-8"?>
<!-- Generator: Adobe Illustrator 23.0.3, SVG Export Plug-In . SVG Version: 6.00 Build 0)  -->
<svg version="1.1" id="Layer_1" xmlns="http://www.w3.org/2000/svg" xmlns:xlink="http://www.w3.org/1999/xlink" x="0px" y="0px"
	 viewBox="0 0 595.28 595.28" style="enable-background:new 0 0 595.28 595.28;" xml:space="preserve">
<style type="text/css">
	.st0{fill:#FFFFFF;}
</style>
<g>
	<path class="st0" d="M341.41,239.2c-15.98-0.53-28.99,10.25-43.77,10.06c-14.78,0.19-27.79-10.59-43.77-10.06
		c-32.43,1.08-53,44.69-32.27,80.65c18.89,32.77,45.49,63.81,76.04,63.81c30.54,0,57.15-31.04,76.04-63.81
		C394.4,283.89,373.84,240.28,341.41,239.2z M248.95,280.15c-3.19,6.48-7.28,17.63-9.22-1.27c-0.54-5.26,2.23-8.35,6.01-7.7
		S251.24,275.5,248.95,280.15z M257.61,328.84c-2.46-4.68-1.04-8.58,2.71-9.39c3.76-0.81,6.72,1.97,6.32,7.14
		C266.1,333.79,266.46,345.67,257.61,328.84z M297.18,279.13c3.84,0.04,6.11,3.41,4.59,8.36c-2.13,6.9-4.4,18.56-9.31,0.2
		C291.09,282.57,293.33,279.08,297.18,279.13z M304.88,351.37c-2.13,6.9-4.4,18.56-9.31,0.2c-1.37-5.11,0.88-8.6,4.72-8.56
		C304.14,343.06,306.41,346.42,304.88,351.37z M340.95,324.99c-8.85,16.82-8.49,4.95-9.04-2.25c-0.39-5.17,2.56-7.94,6.32-7.14
		C341.99,316.4,343.41,320.3,340.95,324.99z M346.14,281.39c-2.48-4.68-1.07-8.58,2.69-9.4c3.75-0.82,6.72,1.95,6.34,7.12
		C354.64,286.32,355.04,298.19,346.14,281.39z"/>
	<path class="st0" d="M297,208.99c4.92,0,7.46,3.76,7.21,6.87c-0.1,1.26-1.03,13.39-1.03,13.39s6.63-4.96,11.33-7.89
		c3.81-2.38,7.43,0.08,9.27,2.74c1.57,2.27,2.18,7.87-2.06,9.95c-2.07,1.02-17.96,9.84-24.71,9.84s-22.65-8.83-24.71-9.84
		c-4.24-2.08-3.63-7.69-2.06-9.95c1.84-2.66,5.45-5.13,9.27-2.74c4.69,2.93,11.33,7.89,11.33,7.89s-0.93-12.13-1.03-13.39
		C289.53,212.75,292.08,208.99,297,208.99z"/>
</g>
<g>
	<polygon class="st0" points="270.59,439.36 263.52,451.45 272.23,453.35 270.82,439.41 	"/>
	<polygon class="st0" points="369.2,155.68 368.99,155.58 359.2,165.6 367.19,169.55 	"/>
	<path class="st0" d="M312.86,439.07l-7.42,0.48l0.66,10.15l7.42-0.48c2.62-0.17,4.14-3.25,4.01-5.36
		C317.39,441.76,315.49,438.9,312.86,439.07z"/>
	<path class="st0" d="M297.64,93.46c-112.76,0-204.18,91.41-204.18,204.18s91.41,204.18,204.18,204.18
		c112.77,0,204.18-91.41,204.18-204.18S410.4,93.46,297.64,93.46z M375.18,143.34c3.23,1.6,4.83,4.68,4.51,7.52l-3.27,34.6
		c-0.27,2.48-3.1,4.21-6.17,3.84c-3.1-0.32-5.41-2.61-5.19-5.11l0.65-4.27l-13.84-6.84l-3,3.11c-1.86,1.69-5.08,1.25-7.22-1.02
		c-2.16-2.21-2.5-5.51-0.7-7.23l25.51-23.61C368.52,142.34,371.95,141.74,375.18,143.34z M305.75,128.9
		c0.41-2.54,3.33-4.15,6.49-3.64c3.16,0.51,5.43,2.96,5.02,5.5l-2.03,12.6c1.13,0.17,2.27,0.33,3.05,0.44l14.82-13.71
		c1.77-1.68,4.93-1.17,7.06,1.08c2.06,2.3,2.31,5.41,0.47,7.14l-12.58,11.63l8.29,14.99c1.21,2.22-0.01,5.09-2.69,6.63
		c-2.72,1.47-5.89,0.96-7.04-1.19l-9.78-17.66c-0.6-0.08-1.77-0.26-3.05-0.47l-2.03,12.59c-0.41,2.54-3.33,4.15-6.49,3.64
		c-3.16-0.51-5.43-2.96-5.02-5.5L305.75,128.9z M258.31,129.12c3.15-0.58,6.11,0.96,6.58,3.49l2.34,12.6
		c1.15-0.22,2.25-0.43,2.78-0.53l9.35-17.9c1.11-2.18,4.25-2.77,7.01-1.36c2.71,1.47,4,4.31,2.85,6.56l-7.93,15.19l12.86,11.33
		c1.88,1.69,1.7,4.8-0.3,7.15c-2.07,2.3-5.22,2.89-7.03,1.25l-15.15-13.35c-0.79,0.15-1.79,0.33-2.79,0.52l2.32,12.48
		c0.47,2.53-1.74,5.03-4.89,5.61c-3.15,0.59-6.11-0.96-6.58-3.49l-6.3-33.94C252.96,132.21,255.17,129.71,258.31,129.12z
		 M219.88,143.25c3.22-1.61,6.64-1.02,8.71,0.95l25.59,23.51c1.81,1.71,1.48,5.01-0.67,7.23c-2.12,2.27-5.34,2.73-7.21,1.04
		l-3.01-3.09l-13.8,6.89l0.66,4.27c0.23,2.51-2.07,4.8-5.17,5.13c-3.07,0.38-5.9-1.33-6.18-3.81l-3.4-34.58
		C215.07,147.95,216.65,144.86,219.88,143.25z M162.3,304.79c3.33,1.63,2.84,6.03,1.62,7.81c-1.44,2.09-4.28,4.02-7.27,2.15
		c-3.68-2.3-8.88-6.19-8.88-6.19s0.73,9.13,0.81,10.12c0.2,2.44-1.8,5.39-5.65,5.39c-3.86,0-5.85-2.95-5.65-5.39
		c0.08-0.99,0.81-10.12,0.81-10.12s-5.2,3.89-8.88,6.19c-2.99,1.87-5.83-0.07-7.27-2.15c-1.23-1.78-1.71-6.17,1.62-7.81
		c0.94-0.46,5.47-2.95,10.16-4.98c-4.69-2.03-9.23-4.52-10.16-4.98c-3.33-1.63-2.84-6.03-1.62-7.81c1.44-2.09,4.28-4.02,7.27-2.15
		c3.68,2.3,8.88,6.19,8.88,6.19s-0.73-9.13-0.81-10.12c-0.2-2.44,1.8-5.39,5.65-5.39c3.86,0,5.85,2.95,5.65,5.39
		c-0.08,0.99-0.81,10.12-0.81,10.12s5.2-3.89,8.88-6.19c2.99-1.87,5.83,0.06,7.27,2.15c1.23,1.78,1.71,6.17-1.62,7.81
		c-0.94,0.46-5.47,2.95-10.16,4.98C156.82,301.84,161.36,304.33,162.3,304.79z M174.18,176.64l9.98-9.32
		c6.6-6.16,16.35-6.19,22.47,0.37c6.12,6.56,5.42,16.28-1.17,22.44l-5.72,5.34l5.11,5.47c1.75,1.88,1.24,5.18-1.1,7.36
		c-2.34,2.18-5.67,2.47-7.42,0.59L173.08,184C171.33,182.12,171.84,178.82,174.18,176.64z M297.64,189.73
		c59.6,0,107.91,48.31,107.91,107.91c0,59.6-48.31,107.91-107.91,107.91c-59.6,0-107.91-48.31-107.91-107.91
		C189.72,238.04,238.04,189.73,297.64,189.73z M227.21,456.82c-2.73-1.68-3.89-4.81-2.55-7l10.65-17.34l-0.14-0.22l-9.63,3.01
		c-1.54,0.53-3.46,0.29-5.22-0.79c-1.76-1.08-2.85-2.69-3.06-4.3l-1.67-9.95l-0.26-0.02l-10.65,17.34
		c-1.35,2.19-4.66,2.57-7.39,0.89c-2.73-1.68-3.89-4.81-2.54-7l17.59-28.64c1.62-2.63,5.53-3.11,8.8-1.11
		c2.09,1.29,3.38,3.35,3.64,5.32l2.88,15.52l15.15-4.45c1.88-0.66,4.3-0.44,6.39,0.84c3.26,2.01,4.61,5.72,2.99,8.35l-17.6,28.64
		C233.26,458.12,229.94,458.5,227.21,456.82z M279.98,471.77c-3.08,0.44-5.88-1.22-6.27-3.71l-0.41-4.3l-15.08-3.28l-2.16,3.74
		c-1.39,2.1-4.63,2.45-7.25,0.76c-2.63-1.62-3.77-4.74-2.43-6.85l19.02-29.09c1.52-2.42,4.69-3.84,8.21-3.07
		c3.52,0.77,5.82,3.37,6.2,6.2l5.22,34.37C285.38,469.02,283.05,471.38,279.98,471.77z M328.65,463.6c1.57,2.08,0.06,5.38-2.77,6.88
		c-2.82,1.56-5.96,0.84-7.42-1.3l-6.22-9.34l-5.48,0.35l0.48,7.47c0.17,2.57-2.33,4.79-5.52,5c-3.19,0.21-5.95-1.68-6.12-4.25
		l-2.19-34c-0.17-2.57,2.33-4.79,5.52-5l13.63-0.88c9.01-0.58,16.57,5.57,17.15,14.53c0.37,5.76-2.61,10.19-6.53,13.31L328.65,463.6
		z M352.03,463.98c-3.95,1.51-9.96,1.79-13.27-1.42c-4.13-3.93,0.12-11.85,5.85-9.51c0.81,0.36,2.35,0.88,3.58,0.41
		c1.98-0.75,2.49-2.6,1.82-4.37l-8.93-23.38c-0.92-2.4,0.81-5.26,3.79-6.4c2.99-1.14,6.18-0.16,7.1,2.25l8.93,23.38
		C364.21,453.58,359.77,461.03,352.03,463.98z M405.72,434.83c-1.81,2.53-4.94,3.4-7.01,1.97l-3.39-2.68l-12.8,8.62l1.21,4.15
		c0.55,2.46-1.44,5.03-4.46,5.76c-2.99,0.78-6.03-0.56-6.62-2.98l-7.85-33.85c-0.69-2.77,0.48-6.04,3.47-8.05
		c2.99-2.01,6.46-1.87,8.77-0.18l28.42,20C407.46,429.04,407.56,432.35,405.72,434.83z M415.33,186.25
		c-0.87-2.43-2.42-4.63-4.94-6.96c-1.72-1.43-3.6-2-5.04-0.52c-4.36,4.3,14.5,15.14,2.95,27.67c-6.08,6.6-15,4.3-22.06-2.21
		c-3.5-3.54-6.43-7.79-7.89-11.93c-1.83-6.2,7.24-8.95,9.74-3.15c0.83,2.48,2.93,5.34,5.01,7.64c2.1,1.94,4.76,3.61,6.58,1.71
		c4.07-4.25-14.31-16.45-3.5-28.18c5.07-5.51,14.33-4.67,21.06,1.52c3.74,3.45,6.07,6.99,7.7,11.3
		C426.79,188.66,417.45,191.71,415.33,186.25z M473.36,312.6c-1.44,2.09-4.28,4.02-7.27,2.15c-3.68-2.3-8.88-6.19-8.88-6.19
		s0.73,9.13,0.81,10.12c0.2,2.44-1.8,5.39-5.65,5.39c-3.86,0-5.85-2.95-5.65-5.39c0.08-0.99,0.81-10.12,0.81-10.12
		s-5.2,3.89-8.88,6.19c-2.99,1.87-5.83-0.07-7.27-2.15c-1.23-1.78-1.71-6.17,1.62-7.81c0.94-0.46,5.47-2.95,10.16-4.98
		c-4.69-2.03-9.23-4.52-10.16-4.98c-3.33-1.63-2.84-6.03-1.62-7.81c1.44-2.09,4.28-4.02,7.27-2.15c3.68,2.3,8.88,6.19,8.88,6.19
		s-0.73-9.13-0.81-10.12c-0.2-2.44,1.8-5.39,5.65-5.39c3.86,0,5.85,2.95,5.65,5.39c-0.08,0.99-0.81,10.12-0.81,10.12
		s5.2-3.89,8.88-6.19c2.99-1.87,5.82,0.06,7.27,2.15c1.23,1.78,1.71,6.17-1.62,7.81c-0.94,0.46-5.47,2.95-10.16,4.98
		c4.69,2.03,9.23,4.52,10.16,4.98C475.07,306.42,474.59,310.82,473.36,312.6z"/>
	<polygon class="st0" points="375.83,419.2 379.66,432.67 387.06,427.69 376.01,419.07 	"/>
	<polygon class="st0" points="235.94,165.45 226.1,155.47 225.9,155.57 227.96,169.43 	"/>
	<path class="st0" d="M197.7,176.03c-1.44-1.55-4.72-2.55-6.65-0.75l-5.43,5.07l6.94,7.44l5.43-5.07
		C199.92,180.92,199.14,177.58,197.7,176.03z"/>
</g>
</svg>
