<?xml version="1.0" encoding="utf-8"?>
<!-- Generator: Adobe Illustrator 24.1.0, SVG Export Plug-In . SVG Version: 6.00 Build 0)  -->
<svg version="1.1" id="Layer_1" xmlns="http://www.w3.org/2000/svg" xmlns:xlink="http://www.w3.org/1999/xlink" x="0px" y="0px"
	 viewBox="0 0 50 50" style="enable-background:new 0 0 50 50;" xml:space="preserve">
<style type="text/css">
	.st0{fill:#E01E37;}
</style>
<g>
	<g>
		<path class="st0" d="M46.85,13.85l-2.56-2.37l-8.77-8.1l-2.87-2.65c-0.29-0.27-0.66-0.4-1.04-0.4H11.33
			c-2.05,0-3.71,1.67-3.71,3.71v16.49h3.06V4.04c0-0.36,0.3-0.66,0.66-0.66h18.75v11.59c0,0.84,0.68,1.53,1.53,1.53h12.68v29.46
			c0,0.36-0.3,0.66-0.66,0.66h-32.3c-0.36,0-0.66-0.29-0.66-0.66v-5.01H7.62v5.01c0,2.05,1.67,3.71,3.71,3.71h32.3
			c2.05,0,3.71-1.67,3.71-3.71V14.97C47.34,14.55,47.17,14.14,46.85,13.85z"/>
	</g>
	<g>
		<path class="st0" d="M11.76,27.96c-0.12-0.03-0.39-0.07-1.01-0.07H8.77v2.64h2.01c0.68,0,1.16-0.12,1.43-0.36
			c0.26-0.23,0.39-0.56,0.39-0.99c0-0.32-0.08-0.58-0.23-0.8C12.2,28.16,12.01,28.03,11.76,27.96z"/>
	</g>
	<g>
		<path class="st0" d="M20.61,28.05c-0.28-0.11-0.75-0.16-1.4-0.16h-1.59v6.16h1.62c0.54,0,0.97-0.05,1.27-0.15
			c0.29-0.09,0.52-0.23,0.69-0.39c0.24-0.24,0.44-0.58,0.58-1.01c0.14-0.43,0.22-0.97,0.22-1.6c0-0.86-0.14-1.52-0.41-1.97
			C21.32,28.49,20.99,28.2,20.61,28.05z"/>
	</g>
	<g>
		<path class="st0" d="M36.18,36.66v-11.4c0-1.24-1-2.24-2.24-2.24H4.9c-1.24,0-2.24,1-2.24,2.24v11.4c0,1.24,1,2.24,2.24,2.24
			h29.04C35.17,38.9,36.18,37.9,36.18,36.66z M13.46,31.16c-0.52,0.56-1.4,0.84-2.71,0.84H8.77v3.52h-1.6v-9.11h3.49
			c0.59,0,1.04,0.03,1.36,0.09c0.45,0.08,0.84,0.22,1.16,0.44c0.32,0.22,0.58,0.53,0.77,0.92c0.19,0.39,0.29,0.82,0.29,1.28
			C14.23,29.93,13.97,30.61,13.46,31.16z M23.39,32.73c-0.16,0.53-0.37,0.98-0.62,1.33c-0.25,0.35-0.54,0.64-0.85,0.84
			c-0.31,0.2-0.68,0.36-1.11,0.47c-0.42,0.1-0.9,0.15-1.44,0.15h-3.35v-9.11h3.21c0.7,0,1.22,0.04,1.59,0.13
			c0.53,0.12,0.99,0.35,1.37,0.67c0.48,0.41,0.85,0.94,1.09,1.57c0.23,0.62,0.35,1.34,0.35,2.14C23.63,31.59,23.55,32.2,23.39,32.73
			z M31.79,27.89H27.1v2.22h4.06v1.48H27.1v3.93h-1.6v-9.11h6.29V27.89z"/>
	</g>
</g>
</svg>
