<?xml version="1.0" encoding="utf-8"?>
<!-- Generator: Adobe Illustrator 24.1.0, SVG Export Plug-In . SVG Version: 6.00 Build 0)  -->
<svg version="1.1" id="Layer_1" xmlns="http://www.w3.org/2000/svg" xmlns:xlink="http://www.w3.org/1999/xlink" x="0px" y="0px"
	 viewBox="0 0 50 50" style="enable-background:new 0 0 50 50;" xml:space="preserve">
<style type="text/css">
	.st0{fill:#E01E37;}
</style>
<g>
	<path class="st0" d="M41.58,0.15H17.93c-1.17,0-2.27,0.45-3.09,1.28l-9.21,9.21c-0.82,0.82-1.28,1.92-1.28,3.09v32.06
		c0,2.24,1.82,4.06,4.06,4.06h33.16c2.24,0,4.06-1.82,4.06-4.06V4.21C45.64,1.97,43.82,0.15,41.58,0.15z M42.62,45.79
		c0,0.57-0.47,1.04-1.04,1.04H8.42c-0.57,0-1.04-0.47-1.04-1.04V14.05h7.84c1.68,0,3.04-1.37,3.04-3.05V3.17h23.32
		c0.57,0,1.04,0.47,1.04,1.04V45.79z"/>
</g>
</svg>
